<svg width="49" height="49" viewBox="0 0 49 49" fill="none" xmlns="http://www.w3.org/2000/svg">
<path d="M24.4969 0.51001C10.9699 0.51001 0 11.5228 0 25.108C0 35.9738 7.01925 45.1919 16.758 48.4473C17.983 48.6739 18.4301 47.9144 18.4301 47.2621C18.4301 46.6772 18.4087 45.1306 18.3964 43.0788C11.5824 44.5641 10.143 39.7804 10.143 39.7804C9.03131 36.9384 7.4235 36.182 7.4235 36.182C5.19706 34.6569 7.58887 34.6875 7.58887 34.6875C10.0481 34.8621 11.3404 37.2233 11.3404 37.2233C13.5271 40.9809 17.0765 39.8968 18.473 39.2659C18.6935 37.6765 19.3274 36.5924 20.0287 35.9768C14.5898 35.3551 8.869 33.2451 8.869 23.8218C8.869 21.1359 9.8245 18.9401 11.3925 17.219C11.1383 16.5973 10.2992 14.0953 11.6314 10.7112C11.6314 10.7112 13.6894 10.0497 18.3689 13.2316C20.3228 12.6865 22.4175 12.4139 24.5031 12.4048C26.5825 12.417 28.6803 12.6865 30.6372 13.2347C35.3137 10.0528 37.3686 10.7143 37.3686 10.7143C38.7039 14.1014 37.8647 16.6004 37.6136 17.2221C39.1847 18.9432 40.131 21.139 40.131 23.8248C40.131 33.2726 34.4041 35.3521 28.9467 35.9615C29.8257 36.721 30.6097 38.2216 30.6097 40.5154C30.6097 43.8046 30.5791 46.4567 30.5791 47.2621C30.5791 47.9206 31.0201 48.6862 32.2634 48.4443C41.9869 45.1858 49 35.9707 49 25.108C49 11.5228 38.0301 0.51001 24.4969 0.51001Z" fill="#7A89E1"/>
</svg>
