<svg width="49" height="49" viewBox="0 0 49 49" fill="none" xmlns="http://www.w3.org/2000/svg">
<g clip-path="url(#clip0)">
<path d="M48.9521 14.4061C48.8373 11.8026 48.4163 10.0127 47.8132 8.46166C47.191 6.81532 46.2338 5.34135 44.9797 4.11604C43.7543 2.87165 42.2707 1.90471 40.6434 1.29224C39.0834 0.689122 37.3028 0.268096 34.6993 0.153304C32.0763 0.0287913 31.2436 0 24.5909 0C17.9382 0 17.1055 0.0287913 14.4923 0.143583C11.8887 0.258374 10.0988 0.679774 8.54815 1.28252C6.90144 1.90471 5.42747 2.86193 4.20216 4.11604C2.95778 5.34135 1.99121 6.82504 1.37837 8.45231C0.775243 10.0127 0.354216 11.7929 0.239425 14.3964C0.114912 17.0194 0.0861206 17.8521 0.0861206 24.5048C0.0861206 31.1575 0.114912 31.9902 0.229703 34.6034C0.344495 37.207 0.765895 38.9969 1.36902 40.5479C1.99121 42.1943 2.95778 43.6682 4.20216 44.8935C5.42747 46.1379 6.91116 47.1049 8.53843 47.7173C10.0988 48.3204 11.879 48.7415 14.4829 48.8563C17.0958 48.9714 17.9289 48.9999 24.5816 48.9999C31.2342 48.9999 32.0669 48.9714 34.6802 48.8563C37.2838 48.7415 39.0737 48.3204 40.6243 47.7173C43.9174 46.4442 46.5209 43.8406 47.7941 40.5479C48.3969 38.9876 48.8183 37.207 48.933 34.6034C49.0478 31.9902 49.0766 31.1575 49.0766 24.5048C49.0766 17.8521 49.0669 17.0194 48.9521 14.4061ZM44.5396 34.412C44.4341 36.805 44.0322 38.0973 43.6971 38.9588C42.8738 41.0935 41.1796 42.7877 39.0449 43.611C38.1834 43.946 36.8818 44.348 34.4981 44.4531C31.9136 44.5682 31.1385 44.5966 24.6006 44.5966C18.0628 44.5966 17.2779 44.5682 14.7028 44.4531C12.3097 44.348 11.0175 43.946 10.156 43.611C9.09369 43.2184 8.12675 42.5962 7.34191 41.7826C6.52827 40.988 5.90608 40.0308 5.51347 38.9685C5.17845 38.107 4.77649 36.805 4.67142 34.4217C4.55626 31.8372 4.52784 31.0617 4.52784 24.5239C4.52784 17.986 4.55626 17.2011 4.67142 14.6264C4.77649 12.2333 5.17845 10.9411 5.51347 10.0796C5.90608 9.01692 6.52827 8.05035 7.35163 7.26514C8.14582 6.4515 9.10304 5.82931 10.1657 5.43707C11.0272 5.10205 12.3292 4.70009 14.7125 4.59465C17.297 4.47986 18.0725 4.45106 24.61 4.45106C31.1576 4.45106 31.9327 4.47986 34.5078 4.59465C36.9009 4.70009 38.1931 5.10205 39.0546 5.43707C40.1169 5.82931 41.0839 6.4515 41.8687 7.26514C42.6823 8.0597 43.3045 9.01692 43.6971 10.0796C44.0322 10.9411 44.4341 12.2427 44.5396 14.6264C44.6544 17.2109 44.6831 17.986 44.6831 24.5239C44.6831 31.0617 44.6544 31.8275 44.5396 34.412Z" fill="#FC8D8D"/>
<path d="M24.5908 11.9175C17.6417 11.9175 12.0034 17.5553 12.0034 24.5049C12.0034 31.4545 17.6417 37.0923 24.5908 37.0923C31.5404 37.0923 37.1783 31.4545 37.1783 24.5049C37.1783 17.5553 31.5404 11.9175 24.5908 11.9175ZM24.5908 32.67C20.0826 32.67 16.4257 29.0135 16.4257 24.5049C16.4257 19.9963 20.0826 16.3398 24.5908 16.3398C29.0995 16.3398 32.756 19.9963 32.756 24.5049C32.756 29.0135 29.0995 32.67 24.5908 32.67Z" fill="#FC8D8D"/>
<path d="M40.6149 11.4198C40.6149 13.0426 39.2991 14.3584 37.676 14.3584C36.0532 14.3584 34.7374 13.0426 34.7374 11.4198C34.7374 9.79663 36.0532 8.4812 37.676 8.4812C39.2991 8.4812 40.6149 9.79663 40.6149 11.4198Z" fill="#FC8D8D"/>
</g>
<defs>
<clipPath id="clip0">
<rect width="49" height="49" fill="white"/>
</clipPath>
</defs>
</svg>
