<svg width="71" height="71" viewBox="0 0 71 71" fill="none" xmlns="http://www.w3.org/2000/svg">
<circle cx="35.5" cy="35.5" r="35.5" fill="#FFE6CE"/>
<path d="M27.5 31.625C27.5 31.2541 27.39 30.8916 27.184 30.5833C26.978 30.275 26.6851 30.0346 26.3425 29.8927C25.9999 29.7508 25.6229 29.7137 25.2592 29.786C24.8955 29.8584 24.5614 30.0369 24.2992 30.2992C24.037 30.5614 23.8584 30.8955 23.786 31.2592C23.7137 31.6229 23.7508 31.9999 23.8927 32.3425C24.0346 32.6851 24.275 32.978 24.5833 33.184C24.8916 33.39 25.2542 33.5 25.625 33.5C26.1221 33.4994 26.5987 33.3017 26.9502 32.9502C27.3017 32.5987 27.4994 32.1221 27.5 31.625ZM25 31.625C25 31.5014 25.0367 31.3805 25.1053 31.2778C25.174 31.175 25.2716 31.0949 25.3858 31.0476C25.5 31.0003 25.6257 30.9879 25.7469 31.012C25.8682 31.0361 25.9795 31.0956 26.0669 31.183C26.1544 31.2705 26.2139 31.3818 26.238 31.5031C26.2621 31.6243 26.2497 31.75 26.2024 31.8642C26.1551 31.9784 26.075 32.076 25.9722 32.1447C25.8695 32.2133 25.7486 32.25 25.625 32.25C25.4593 32.2498 25.3004 32.1839 25.1833 32.0667C25.0661 31.9495 25.0002 31.7907 25 31.625Z" fill="#865A5A"/>
<path d="M53.75 18.5V17.25H21.875C21.7929 17.25 21.7116 17.2662 21.6358 17.2976C21.56 17.329 21.4911 17.375 21.4331 17.4331C21.375 17.4911 21.329 17.56 21.2976 17.6358C21.2662 17.7116 21.25 17.7929 21.25 17.875V22.875C21.25 22.9571 21.2662 23.0384 21.2976 23.1142C21.329 23.19 21.375 23.2589 21.4331 23.3169C21.4911 23.375 21.56 23.421 21.6358 23.4524C21.7116 23.4838 21.7929 23.5 21.875 23.5H23.7778C23.8751 24.2632 24.2171 24.7188 24.5012 25.0952C24.7908 25.4789 25 25.7561 25 26.3749C25.0112 26.6872 24.9326 26.9962 24.7737 27.2654C23.0176 27.3663 21.336 28.0095 19.9606 29.1061C19.5829 29.4083 19.2779 29.7916 19.0684 30.2276C18.8588 30.6637 18.75 31.1412 18.75 31.625C18.75 32.1088 18.8588 32.5864 19.0684 33.0224C19.278 33.4584 19.5829 33.8417 19.9607 34.1439C21.0694 35.0283 22.3817 35.6213 23.7781 35.8688C23.7593 36.0156 23.7499 36.1635 23.75 36.3116C23.75 37.3491 24.1665 37.9009 24.5012 38.3443C24.7908 38.728 25 39.0053 25 39.624C25 39.6675 24.9982 39.7089 24.9961 39.75H16.875C16.7929 39.75 16.7116 39.7662 16.6358 39.7976C16.56 39.829 16.4911 39.875 16.4331 39.9331C16.375 39.9911 16.329 40.06 16.2976 40.1358C16.2662 40.2117 16.25 40.2929 16.25 40.375V42.875C16.2529 45.2523 17.1577 47.54 18.7818 49.2761C20.4059 51.0122 22.6282 52.0674 25 52.2287V54.125C25 54.2071 25.0162 54.2883 25.0476 54.3642C25.079 54.44 25.125 54.5089 25.1831 54.5669C25.2411 54.625 25.31 54.671 25.3858 54.7024C25.4616 54.7338 25.5429 54.75 25.625 54.75H43.125C43.2071 54.75 43.2883 54.7338 43.3642 54.7024C43.44 54.671 43.5089 54.625 43.5669 54.5669C43.625 54.5089 43.671 54.44 43.7024 54.3642C43.7338 54.2883 43.75 54.2071 43.75 54.125V52.2287C46.1218 52.0674 48.3441 51.0122 49.9682 49.2761C51.5923 47.54 52.4971 45.2523 52.5 42.875V40.375C52.5 40.2929 52.4838 40.2117 52.4524 40.1358C52.421 40.06 52.375 39.9911 52.3169 39.9331C52.2589 39.875 52.19 39.829 52.1142 39.7976C52.0383 39.7662 51.9571 39.75 51.875 39.75H48.0571C48.3727 39.6234 48.67 39.5296 48.9732 39.4341C49.8783 39.1492 50.8141 38.8546 52.2561 37.7454C52.3748 37.6541 52.4567 37.5232 52.487 37.3766C52.5174 37.23 52.4941 37.0773 52.4213 36.9465L49.2963 31.3215C49.2527 31.2429 49.1926 31.1746 49.1201 31.1214C49.0477 31.0682 48.9646 31.0312 48.8766 31.013C48.7886 30.9948 48.6976 30.9958 48.61 31.0159C48.5224 31.036 48.4402 31.0748 48.3689 31.1296C47.1025 32.1038 46.311 32.353 45.4729 32.6168C44.6179 32.886 43.7352 33.1642 42.4245 34.1292C41.2843 33.495 39.9411 33.3326 38.6826 33.6767C38.7286 33.4538 38.7512 33.2268 38.75 32.9992C38.7517 32.7464 38.7238 32.4942 38.6666 32.2479C38.6945 32.2483 38.722 32.25 38.75 32.25C39.766 32.2507 40.758 31.9416 41.5938 31.3641C42.4296 30.7865 43.0695 29.9679 43.4282 29.0174C43.7869 28.0668 43.8473 27.0296 43.6014 26.0438C43.3555 25.0581 42.815 24.1707 42.0519 23.5H53.75V22.25H37.6826C37.7754 22.086 37.8811 21.9297 37.9988 21.7827C38.1935 21.5415 38.3601 21.2789 38.4953 21H53.75V19.75H22.5V18.5H53.75ZM33.8761 25.0951C33.9594 25.2054 34.0349 25.3074 34.102 25.4109C33.8692 25.9961 33.7498 26.6202 33.75 27.25C33.7501 27.4286 33.7598 27.607 33.7789 27.7845C33.466 28.2075 33.125 28.7482 33.125 29.6872C33.125 30.7246 33.5415 31.2764 33.8762 31.7198C34.1658 32.1034 34.375 32.3806 34.375 32.9992C34.375 33.6179 34.1658 33.8952 33.8762 34.2789C33.5415 34.7223 33.125 35.2741 33.125 36.3116C33.125 37.3491 33.5415 37.9009 33.8761 38.3443C34.1658 38.728 34.375 39.0053 34.375 39.624C34.375 39.6675 34.3732 39.7089 34.3711 39.75H32.4958C32.4972 39.708 32.5 39.6671 32.5 39.624C32.5 38.5866 32.0835 38.0347 31.7488 37.5913C31.4592 37.2076 31.25 36.9303 31.25 36.3116C31.25 35.6929 31.4592 35.4156 31.7488 35.0319C32.0835 34.5885 32.5 34.0367 32.5 32.9992C32.5 31.9618 32.0835 31.41 31.7488 30.9667C31.4592 30.583 31.25 30.3058 31.25 29.6872C31.25 29.0685 31.4592 28.7913 31.7488 28.4075C32.0835 27.9641 32.5 27.4123 32.5 26.3749C32.5 25.3374 32.0835 24.7856 31.7488 24.3421C31.4592 23.9584 31.25 23.6812 31.25 23.0624C31.25 22.4437 31.4592 22.1665 31.7488 21.7827C31.9435 21.5415 32.1101 21.2789 32.2453 21H33.8985C33.8909 21.01 33.8838 21.0196 33.8762 21.0297C33.5415 21.4731 33.125 22.0249 33.125 23.0624C33.125 24.0999 33.5415 24.6517 33.8761 25.0951ZM30.7512 25.0952C31.0408 25.4789 31.25 25.7561 31.25 26.3749C31.25 26.9935 31.0408 27.2708 30.7512 27.6545C30.4165 28.0979 30 28.6497 30 29.6872C30 30.7246 30.4165 31.2764 30.7512 31.7198C31.0408 32.1034 31.25 32.3806 31.25 32.9992C31.25 33.6179 31.0408 33.8952 30.7512 34.2789C30.4165 34.7223 30 35.2741 30 36.3116C30 37.3491 30.4165 37.9009 30.7512 38.3443C31.0408 38.728 31.25 39.0053 31.25 39.624C31.25 39.6675 31.2482 39.7089 31.2461 39.75H29.3708C29.3722 39.708 29.375 39.6671 29.375 39.624C29.375 38.5866 28.9585 38.0347 28.6238 37.5913C28.3342 37.2076 28.125 36.9303 28.125 36.3116C28.125 35.6929 28.3342 35.4156 28.6238 35.0319C28.8153 34.7937 28.9798 34.5349 29.1143 34.2605C29.7674 33.3984 30.0772 32.3246 29.9836 31.2472C29.8901 30.1697 29.3998 29.1653 28.608 28.4287C28.6133 28.4216 28.6185 28.4147 28.6238 28.4076C28.9585 27.9642 29.375 27.4124 29.375 26.3749C29.375 25.3374 28.9585 24.7856 28.6238 24.3421C28.3342 23.9584 28.125 23.6812 28.125 23.0624C28.125 22.4437 28.3342 22.1665 28.6238 21.7827C28.8185 21.5415 28.9851 21.2789 29.1203 21H30.7735C30.766 21.01 30.7588 21.0196 30.7512 21.0297C30.4165 21.4731 30 22.0249 30 23.0624C30 24.0999 30.4165 24.6517 30.7512 25.0952V25.0952ZM27.6262 25.0952C27.9158 25.4789 28.125 25.7561 28.125 26.3749C28.125 26.9936 27.9158 27.2708 27.6261 27.6545C27.6117 27.6736 27.5965 27.6941 27.5818 27.7137C27.1253 27.4843 26.632 27.3372 26.1244 27.2794C26.2107 26.9857 26.2531 26.6809 26.25 26.3749C26.25 25.3374 25.8335 24.7856 25.4988 24.3421C25.2092 23.9584 25 23.6812 25 23.0624C25 22.4437 25.2092 22.1665 25.4988 21.7827C25.6935 21.5415 25.8601 21.2789 25.9953 21H27.6484C27.6409 21.01 27.6338 21.0196 27.6261 21.0297C27.2915 21.4731 26.875 22.0249 26.875 23.0624C26.875 24.0999 27.2915 24.6517 27.6262 25.0952V25.0952ZM20 31.625C19.9993 31.3286 20.0656 31.0358 20.194 30.7687C20.3225 30.5015 20.5096 30.2668 20.7415 30.0822C22.0228 29.0598 23.6128 28.5021 25.252 28.5H25.625C26.4538 28.5 27.2487 28.8292 27.8347 29.4153C28.4208 30.0013 28.75 30.7962 28.75 31.625C28.75 32.4538 28.4208 33.2487 27.8347 33.8347C27.2487 34.4208 26.4538 34.75 25.625 34.75H25.252C23.6128 34.7479 22.0228 34.1902 20.7415 33.1678C20.5096 32.9832 20.3224 32.7485 20.194 32.4813C20.0656 32.2142 19.9993 31.9214 20 31.625ZM25.4988 37.5913C25.2092 37.2076 25 36.9303 25 36.3116C24.9996 36.2057 25.0069 36.0999 25.0219 35.9951C25.0986 35.9972 25.1752 36 25.252 36H25.625C26.0612 36.0003 26.4949 35.9351 26.9117 35.8066C26.8869 35.9738 26.8747 36.1426 26.875 36.3116C26.875 37.3491 27.2915 37.9009 27.6262 38.3443C27.9158 38.728 28.125 39.0053 28.125 39.624C28.125 39.6675 28.1232 39.7089 28.1211 39.75H26.2458C26.2472 39.708 26.25 39.6671 26.25 39.624C26.25 38.5866 25.8335 38.0347 25.4988 37.5913ZM18.6036 46.9592C18.2008 46.27 17.9024 45.5248 17.7183 44.748C17.7436 44.7486 17.7686 44.75 17.7943 44.75C18.7454 44.75 19.2408 44.3181 19.6388 43.9711C19.9642 43.6874 20.1792 43.5 20.6618 43.5C21.1445 43.5 21.3595 43.6874 21.6848 43.9711C22.0829 44.3181 22.5782 44.75 23.5293 44.75C24.4803 44.75 24.9757 44.3181 25.3737 43.9711C25.6991 43.6874 25.9141 43.5 26.3968 43.5C26.8794 43.5 27.0944 43.6874 27.4198 43.9711C27.8178 44.3181 28.3132 44.75 29.2643 44.75C30.2154 44.75 30.7108 44.3181 31.1088 43.9711C31.4342 43.6874 31.6492 43.5 32.132 43.5C32.6147 43.5 32.8297 43.6874 33.1551 43.9711C33.5532 44.3181 34.0486 44.75 34.9997 44.75C35.9507 44.75 36.4461 44.3181 36.8441 43.9711C37.1694 43.6874 37.3844 43.5 37.867 43.5C38.3496 43.5 38.5646 43.6874 38.89 43.9711C39.288 44.3181 39.7833 44.75 40.7344 44.75C41.6855 44.75 42.1809 44.3181 42.5789 43.9711C42.9044 43.6874 43.1194 43.5 43.6021 43.5C44.0849 43.5 44.2999 43.6874 44.6253 43.9711C45.0233 44.3181 45.5187 44.75 46.4698 44.75C47.421 44.75 47.9164 44.3181 48.3145 43.9711C48.6399 43.6874 48.855 43.5 49.3378 43.5C49.8205 43.5 50.0355 43.6874 50.361 43.9711C50.58 44.1758 50.8242 44.3518 51.0876 44.4948C50.9625 45.1103 50.7658 45.709 50.5017 46.2787C50.1434 46.0893 49.743 45.9934 49.3378 46C48.3867 46 47.8912 46.4319 47.4931 46.7789C47.1677 47.0626 46.9527 47.25 46.4698 47.25C45.9871 47.25 45.7721 47.0626 45.4467 46.7789C45.0486 46.4319 44.5532 46 43.6021 46C42.651 46 42.1556 46.4319 41.7575 46.7789C41.4321 47.0626 41.2171 47.25 40.7344 47.25C40.2517 47.25 40.0368 47.0626 39.7114 46.7789C39.3134 46.4319 38.8181 46 37.867 46C36.916 46 36.4206 46.4319 36.0226 46.7789C35.6973 47.0626 35.4823 47.25 34.9997 47.25C34.5169 47.25 34.3019 47.0626 33.9765 46.7789C33.5785 46.4319 33.0831 46 32.132 46C31.1809 46 30.6855 46.4319 30.2874 46.7789C29.962 47.0626 29.747 47.25 29.2643 47.25C28.7816 47.25 28.5666 47.0626 28.2412 46.7789C27.8432 46.4319 27.3478 46 26.3968 46C25.4457 46 24.9503 46.4319 24.5523 46.7789C24.2269 47.0626 24.012 47.25 23.5293 47.25C23.0466 47.25 22.8316 47.0626 22.5063 46.7789C22.1083 46.4319 21.6129 46 20.6618 46C19.7108 46 19.2154 46.4319 18.8174 46.7789C18.7425 46.8441 18.6727 46.9044 18.6036 46.9592ZM42.5 53.5H26.25V52.25H42.5V53.5ZM43.125 51H25.625C24.4154 51.0001 23.2211 50.7298 22.1295 50.2087C21.0379 49.6877 20.0766 48.9291 19.316 47.9886C19.435 47.8985 19.5411 47.8063 19.6388 47.7211C19.9642 47.4374 20.1792 47.25 20.6618 47.25C21.1445 47.25 21.3594 47.4374 21.6848 47.7211C22.0829 48.0681 22.5782 48.5 23.5293 48.5C24.4803 48.5 24.9757 48.0681 25.3737 47.7211C25.6991 47.4374 25.9141 47.25 26.3968 47.25C26.8794 47.25 27.0944 47.4374 27.4198 47.7211C27.8178 48.0681 28.3132 48.5 29.2643 48.5C30.2154 48.5 30.7108 48.0681 31.1088 47.7211C31.4342 47.4374 31.6492 47.25 32.132 47.25C32.6147 47.25 32.8297 47.4374 33.1551 47.7211C33.5532 48.0681 34.0486 48.5 34.9997 48.5C35.9507 48.5 36.4461 48.0681 36.8441 47.7211C37.1694 47.4374 37.3844 47.25 37.867 47.25C38.3496 47.25 38.5646 47.4374 38.89 47.7211C39.288 48.0681 39.7833 48.5 40.7344 48.5C41.6855 48.5 42.1809 48.0681 42.5789 47.7211C42.9044 47.4374 43.1194 47.25 43.6021 47.25C44.0849 47.25 44.2999 47.4374 44.6253 47.7211C45.0233 48.0681 45.5187 48.5 46.4698 48.5C47.421 48.5 47.9165 48.0681 48.3145 47.7211C48.6399 47.4374 48.855 47.25 49.3378 47.25C49.5289 47.2437 49.7187 47.2848 49.8902 47.3695C49.1493 48.4855 48.1439 49.401 46.9636 50.0344C45.7832 50.6678 44.4646 50.9995 43.125 51ZM51.25 42.875C51.25 42.9453 51.2491 43.0154 51.2473 43.0852C51.2259 43.0667 51.2045 43.0482 51.1824 43.0289C50.7843 42.6819 50.2889 42.25 49.3378 42.25C48.3867 42.25 47.8912 42.6819 47.4931 43.0288C47.1677 43.3126 46.9527 43.5 46.4698 43.5C45.9871 43.5 45.7721 43.3126 45.4467 43.0289C45.0486 42.6819 44.5532 42.25 43.6021 42.25C42.651 42.25 42.1556 42.6819 41.7575 43.0289C41.4321 43.3126 41.2171 43.5 40.7344 43.5C40.2517 43.5 40.0368 43.3126 39.7114 43.0289C39.3134 42.6819 38.8181 42.25 37.867 42.25C36.916 42.25 36.4206 42.6819 36.0226 43.0289C35.6973 43.3126 35.4823 43.5 34.9997 43.5C34.5169 43.5 34.3019 43.3126 33.9765 43.0289C33.5785 42.6819 33.0831 42.25 32.132 42.25C31.1809 42.25 30.6855 42.6819 30.2874 43.0289C29.962 43.3126 29.747 43.5 29.2643 43.5C28.7816 43.5 28.5666 43.3126 28.2412 43.0289C27.8432 42.6819 27.3478 42.25 26.3968 42.25C25.4457 42.25 24.9503 42.6819 24.5523 43.0289C24.2269 43.3126 24.012 43.5 23.5293 43.5C23.0466 43.5 22.8317 43.3126 22.5063 43.0289C22.1083 42.6819 21.6129 42.25 20.6618 42.25C19.7108 42.25 19.2154 42.6819 18.8174 43.0289C18.492 43.3126 18.277 43.5 17.7943 43.5C17.7031 43.5005 17.612 43.4924 17.5222 43.4757C17.5077 43.2773 17.5003 43.0771 17.5 42.875V41H51.25V42.875ZM38.75 38.5C38.75 38.1685 38.8817 37.8505 39.1161 37.6161C39.3505 37.3817 39.6685 37.25 40 37.25C40.3315 37.25 40.6495 37.3817 40.8839 37.6161C41.1183 37.8505 41.25 38.1685 41.25 38.5V39.75H40C39.6686 39.7496 39.3509 39.6178 39.1165 39.3835C38.8822 39.1491 38.7504 38.8314 38.75 38.5ZM45.8483 33.8091C46.6249 33.5646 47.4242 33.313 48.5465 32.5456L51.0615 37.0726C50.0386 37.7883 49.3363 38.0094 48.5979 38.2418C47.7445 38.5105 46.863 38.7884 45.5554 39.75H44.8423C45.0622 38.8953 45.0519 37.9977 44.8125 37.1482C44.5731 36.2988 44.113 35.5279 43.4791 34.9139C44.4506 34.2504 45.133 34.0343 45.8483 33.8091ZM43.75 38.5C43.7506 38.9258 43.6782 39.3486 43.5361 39.75H42.5V38.5C42.5001 37.9432 42.3143 37.4023 41.972 36.9631C41.6297 36.5239 41.1506 36.2116 40.6107 36.0756C40.0707 35.9397 39.5009 35.9879 38.9914 36.2127C38.482 36.4374 38.0622 36.8258 37.7986 37.3163C37.591 37.0235 37.486 36.6703 37.5 36.3116C37.4926 36.0628 37.5402 35.8154 37.6393 35.5871C38.1896 35.1409 38.855 34.8598 39.5584 34.7762C40.2619 34.6926 40.9746 34.81 41.6141 35.1149C42.2535 35.4197 42.7935 35.8994 43.1716 36.4985C43.5496 37.0977 43.7501 37.7916 43.75 38.5ZM37.5 32.9992C37.5 33.6179 37.2908 33.8952 37.0012 34.2789C36.6665 34.7223 36.25 35.2741 36.25 36.3116C36.25 37.3491 36.6665 37.9009 37.0012 38.3443C37.2908 38.728 37.5 39.0053 37.5 39.624C37.5 39.6675 37.4982 39.7089 37.4961 39.75H35.6208C35.6222 39.708 35.625 39.6671 35.625 39.624C35.625 38.5866 35.2085 38.0347 34.8739 37.5913C34.5842 37.2076 34.375 36.9303 34.375 36.3116C34.375 35.6929 34.5842 35.4156 34.8738 35.0319C35.2085 34.5885 35.625 34.0367 35.625 32.9992C35.625 31.9618 35.2085 31.41 34.8738 30.9667C34.5842 30.583 34.375 30.3058 34.375 29.6872C34.375 29.6806 34.3754 29.6745 34.3754 29.6679C34.9909 30.7769 36.0031 31.6121 37.2088 32.0059C37.4112 32.2965 37.5134 32.6453 37.5 32.9992ZM42.5 27.25C42.5001 27.7816 42.3869 28.3071 42.1679 28.7915C41.949 29.2759 41.6293 29.7081 41.2302 30.0592C41.2432 29.9567 41.2498 29.8534 41.25 29.75V27.25C41.25 26.7555 41.1034 26.2722 40.8287 25.8611C40.554 25.45 40.1635 25.1295 39.7067 24.9403C39.2499 24.7511 38.7472 24.7016 38.2623 24.798C37.7773 24.8945 37.3319 25.1326 36.9822 25.4822C36.6326 25.8319 36.3945 26.2773 36.298 26.7623C36.2016 27.2472 36.2511 27.7499 36.4403 28.2067C36.6295 28.6635 36.95 29.054 37.3611 29.3287C37.7722 29.6034 38.2555 29.75 38.75 29.75V28.5C38.5028 28.5 38.2611 28.4267 38.0555 28.2893C37.85 28.152 37.6898 27.9568 37.5951 27.7284C37.5005 27.4999 37.4758 27.2486 37.524 27.0061C37.5723 26.7637 37.6913 26.5409 37.8661 26.3661C38.0409 26.1913 38.2637 26.0722 38.5061 26.024C38.7486 25.9758 38.9999 26.0005 39.2284 26.0951C39.4568 26.1898 39.652 26.35 39.7893 26.5555C39.9267 26.7611 40 27.0028 40 27.25V29.75C39.9996 30.0814 39.8678 30.3991 39.6335 30.6335C39.3991 30.8678 39.0814 30.9996 38.75 31C38.0083 31 37.2833 30.7801 36.6666 30.368C36.0499 29.956 35.5693 29.3703 35.2855 28.6851C35.0016 27.9998 34.9274 27.2458 35.0721 26.5184C35.2167 25.791 35.5739 25.1228 36.0983 24.5983C36.6228 24.0739 37.291 23.7168 38.0184 23.5721C38.7458 23.4274 39.4998 23.5016 40.1851 23.7855C40.8703 24.0693 41.456 24.5499 41.868 25.1666C42.2801 25.7833 42.5 26.5083 42.5 27.25ZM37.0012 21.0297C36.6822 21.4523 36.2898 21.9744 36.2536 22.9206C35.682 23.2516 35.1811 23.6918 34.7794 24.216C34.5399 23.8917 34.375 23.6115 34.375 23.0624C34.375 22.4437 34.5842 22.1664 34.8739 21.7827C35.0685 21.5415 35.2351 21.2789 35.3703 21H37.0234C37.0159 21.01 37.0088 21.0196 37.0012 21.0297ZM24.5235 21C24.516 21.01 24.5088 21.0196 24.5012 21.0297C24.2669 21.34 23.9931 21.7042 23.8496 22.25H22.5V21H24.5235Z" fill="#865A5A"/>
</svg>
