<svg width="49" height="49" viewBox="0 0 49 49" fill="none" xmlns="http://www.w3.org/2000/svg">
<g clip-path="url(#clip0)">
<path d="M49 9.30694C47.1778 10.1063 45.2362 10.6361 43.2119 10.8933C45.2944 9.64994 46.8838 7.69606 47.6311 5.341C45.6894 6.49862 43.5457 7.31631 41.2611 7.77263C39.4174 5.80956 36.7898 4.59375 33.9233 4.59375C28.3618 4.59375 23.8844 9.10788 23.8844 14.6418C23.8844 15.4381 23.9518 16.2037 24.1172 16.9326C15.7657 16.5252 8.37594 12.5226 3.41162 6.42513C2.54494 7.92881 2.03656 9.64994 2.03656 11.5027C2.03656 14.9818 3.82812 18.0657 6.49862 19.8511C4.88469 19.8205 3.30137 19.3519 1.96 18.6139C1.96 18.6445 1.96 18.6843 1.96 18.7241C1.96 23.6057 5.44206 27.6605 10.0082 28.5946C9.19056 28.8181 8.29937 28.9253 7.3745 28.9253C6.73138 28.9253 6.08212 28.8886 5.47269 28.7538C6.77425 32.732 10.4676 35.6567 14.8593 35.7516C11.4415 38.4252 7.10194 40.0361 2.40406 40.0361C1.58025 40.0361 0.790125 39.9993 0 39.8983C4.44981 42.7678 9.72344 44.4062 15.4105 44.4062C33.8957 44.4062 44.002 29.0938 44.002 15.8209C44.002 15.3768 43.9867 14.9481 43.9652 14.5224C45.9589 13.1075 47.6341 11.3404 49 9.30694Z" fill="#8DCEF3"/>
</g>
<defs>
<clipPath id="clip0">
<rect width="49" height="49" fill="white"/>
</clipPath>
</defs>
</svg>
